<svg width="1200" height="630" viewBox="0 0 1200 630" fill="none" xmlns="http://www.w3.org/2000/svg">
  <rect width="1200" height="630" fill="#EEF5FF"/>
  <rect x="60" y="60" width="1080" height="510" rx="36" fill="url(#paint0_linear)"/>
  <rect x="112" y="120" width="210" height="60" rx="18" fill="white" fill-opacity="0.18"/>
  <rect x="112" y="218" width="574" height="86" rx="24" fill="white" fill-opacity="0.95"/>
  <rect x="112" y="328" width="492" height="28" rx="14" fill="white" fill-opacity="0.46"/>
  <rect x="112" y="374" width="392" height="28" rx="14" fill="white" fill-opacity="0.46"/>
  <rect x="112" y="450" width="210" height="64" rx="32" fill="white"/>
  <rect x="774" y="144" width="266" height="340" rx="32" fill="white" fill-opacity="0.16"/>
  <rect x="814" y="186" width="186" height="114" rx="22" fill="white" fill-opacity="0.92"/>
  <rect x="814" y="324" width="156" height="24" rx="12" fill="white" fill-opacity="0.48"/>
  <rect x="814" y="366" width="186" height="24" rx="12" fill="white" fill-opacity="0.48"/>
  <text x="126" y="158" fill="white" font-family="Arial, sans-serif" font-size="26" font-weight="700" letter-spacing="0.26em">SMANILUM NEWS</text>
  <text x="126" y="276" fill="#0F172A" font-family="Arial, sans-serif" font-size="46" font-weight="700">Portal Berita Sekolah Modern</text>
  <text x="150" y="492" fill="#1D4ED8" font-family="Arial, sans-serif" font-size="24" font-weight="700">next.js + supabase + vercel</text>
  <defs>
    <linearGradient id="paint0_linear" x1="120" y1="90" x2="1048" y2="534" gradientUnits="userSpaceOnUse">
      <stop stop-color="#1D4ED8"/>
      <stop offset="1" stop-color="#60A5FA"/>
    </linearGradient>
  </defs>
</svg>
